<?xml version="1.0" encoding="UTF-8"?>
<svg id="Layer_1" xmlns="http://www.w3.org/2000/svg" xmlns:xlink="http://www.w3.org/1999/xlink" version="1.1" viewBox="0 0 1261.16 321.67">
  <!-- Generator: Adobe Illustrator 30.5.1, SVG Export Plug-In . SVG Version: 2.1.4 Build 3)  -->
  <defs>
    <style>
      .st0 {
        fill: url(#linear-gradient);
      }
    </style>
    <linearGradient id="linear-gradient" x1="976.51" y1="307.09" x2="813.03" y2="23.92" gradientUnits="userSpaceOnUse">
      <stop offset="0" stop-color="#1c63f3"/>
      <stop offset="1" stop-color="#102d73"/>
    </linearGradient>
  </defs>
  <path class="st0" d="M841.34,134.56h19.76s-.2,55.6-.2,55.6c-.06,16.24-12.76,26.19-28.77,26.13l-47.97-.2c-15.02-.06-25.83-11.93-25.84-26.71l-.02-54.8,19.29.04.33,53.04c.05,7.3,6.03,12.76,13.08,12.73l37.83-.19c7.51-.04,12.42-6.01,12.43-13.29l.07-52.35ZM1191.56,116.23c-.91-3.28-3.48-5.73-7.4-5.73l-98,.06.24,17.11,81.9.21-57.68,88.24,22.95.3,54.38-84.13c3.33-5.14,5.35-9.81,3.62-16.06ZM915.24,134.47c-15.92-.03-28.86,9.64-28.88,25.35l-.05,56.65,19.68.05.07-53.92c0-6.83,5.39-11.85,11.68-11.95l32.83-.49c.42-5.52.63-10.43-.2-15.62l-35.13-.07ZM688.15,120.53l52.34,95.85-23.43.05-11.89-23.7-70.66-.11-13,23.83-22.93-.08,53.5-96.67c5.29-9.55,17.52-11.23,27.08-7.68,4.27,1.59,6.8,4.47,8.99,8.5ZM696.18,176.39l-9.98-19.13-14.85-26.61c-.52-.93-1.62-1.66-2.38-1.35-.43.18-1.11.91-1.49,1.64l-24.04,45.21,52.74.23ZM1066.58,158.2l.25,58.37-79.53-.44c-8.62-.05-16.41-5.66-18.25-13.66-1.35-5.89-.97-11.59-.58-17.39.79-11.86,11.69-16.78,24.14-16.81l54.98-.13-.29-8c-.22-6.21-5.75-9.62-11.99-9.64l-60.89-.16-.03-15.81,60.93-.09c5.1,0,9.66.38,14.42,1.92,9.5,3.12,16.8,11.34,16.84,21.85ZM1047.65,201.89l-.24-20.31-51.44.06c-5.73.43-8.58,4.01-8.8,9.43-.23,5.42,2.56,10.68,8.85,10.7l51.63.12Z"/>
  <g>
    <polygon points="178.81 205.53 191.69 216.31 161.97 216.47 150.96 208.33 103.62 170.93 89.51 170.72 89.47 216.47 69.03 216.39 68.97 110.6 89.37 110.71 89.5 154.11 103.89 153.93 160.23 110.58 190.39 110.79 123.47 162.35 178.81 205.53"/>
    <path d="M418.85,105.1l-.17,29.18-54.56.16c-15.05.04-28.66,10.1-28.59,23.72l.16,33.84c.04,9.01,5.1,16.6,12.57,20.59,5.8,2.95,11.77,3.89,18.4,3.89l71.75.03.03-111.27-19.58-.14ZM418.63,200.37l-50.85.06c-7.6-.11-12.53-5.61-12.84-12.7l-.03-25.46c.52-6.55,5.14-11.06,11.76-11.7l51.96-.09v49.89Z"/>
    <path d="M540.36,134.81l-47.07-.42c-16.8-.15-30.49,8.77-30.47,24.56l.05,32.09c.02,15.66,12.42,25.12,28.1,25.17l68.39.22-.42-16-66.83-.31c-7.72-.04-11.45-9.02-9.63-18.48l71.65.12c3.74,0,7.28-1.3,7.29-5.66l.02-22.14c-.81-10.91-10.06-19.07-21.07-19.16ZM541.49,167.8l-59.21.44.05-7.79c.04-5.68,5.05-9.91,10.96-9.92l41.07-.09c5.82-.01,9.12,4.86,8.98,10.46-.05,1.9.46,6.88-1.85,6.89Z"/>
    <path d="M281.84,134.46l-45.21-.08c-16.66-.03-30.67,9.38-30.65,25.4l.03,31.29c.01,13.47,9.91,24.8,23.9,24.86l54.97.23c12.85.05,25.85-9.5,25.87-24.29l.04-32.92c.02-14.53-13.66-24.46-28.94-24.49ZM291.31,189.04c-.03,6.04-4.85,11.23-11.48,11.26l-42.05.18c-6.76.03-12.36-5.36-12.37-12.09l-.03-25.22c0-7.07,5.81-12.53,12.86-12.54l40.33-.07c6.86-.01,12.92,4.98,12.88,11.86l-.14,26.62Z"/>
  </g>
</svg>