<?xml version="1.0" encoding="UTF-8"?>
<svg id="Layer_1" xmlns="http://www.w3.org/2000/svg" xmlns:xlink="http://www.w3.org/1999/xlink" version="1.1" viewBox="0 0 1254 1254">
  <!-- Generator: Adobe Illustrator 30.5.1, SVG Export Plug-In . SVG Version: 2.1.4 Build 3)  -->
  <defs>
    <style>
      .st0 {
        fill: url(#linear-gradient1);
      }

      .st1 {
        fill: url(#linear-gradient);
      }

      .st2 {
        fill: #141f2b;
      }
    </style>
    <linearGradient id="linear-gradient" x1="672.87" y1="598.12" x2="672.87" y2="736.1" gradientUnits="userSpaceOnUse">
      <stop offset="0" stop-color="#1c63f3"/>
      <stop offset="1" stop-color="#102d73"/>
    </linearGradient>
    <linearGradient id="linear-gradient1" x1="683.96" y1="441.43" x2="1056.62" y2="854.14" gradientUnits="userSpaceOnUse">
      <stop offset="0" stop-color="#6366f1"/>
      <stop offset="1" stop-color="#102d73"/>
    </linearGradient>
  </defs>
  <path class="st1" d="M547.46,655.78l76.26-35.04-.09,23.68-51.7,22.12,51.58,22.4.07,24.9-76.31-35.5.19-22.57ZM797.44,655.36l-76-34.84.32,23.53,51.72,22.59-51.47,22.97c-.32,7.89-1.04,15.08.43,23.59l76.04-34.71-1.04-23.14ZM642.16,736.1l22.5-.25,38.34-137.73h-21.11s-39.74,137.97-39.74,137.97Z"/>
  <path class="st0" d="M1082.19,756.13l-118.33-209.6-116.58-206.11c-11.01-19.46-22.97-35.93-42.39-47.5-29.08-17.31-65.09-16.41-93,4.43-23.39,17.46-43.32,38.54-63.73,59.93l33.13,3.28c22.44,2.22,48.38,25.1,60.93,46.9l209.05,363.37,49.69,87.14-193.25.37c10.96,21.94,25.24,38.43,42.42,53.74,43.72,39.27,98.8,61.2,158.18,61.15l195.9-.18-122.03-216.93Z"/>
  <g>
    <path class="st2" d="M695.15,950.65l-254.49-251.78-86.59-85.87,307.18-290.2,46.66-41.85-156.57-.02c-20.02,0-38.47,7.74-52.83,21.5l-262.02,251.18c-31.06,29.77-36.88,83.02-5.08,114.33l171.81,169.12,116.18,113.93c14.38,14.1,33.15,22.02,53.25,22.02l144.56.03-22.06-22.4Z"/>
    <path class="st2" d="M171.68,281.06l-121.91.28.23,666.56c11.2,1.45,20.83-.4,30.81-3.5,53.64-16.66,92.89-66.41,90.96-124.59l-.09-538.75Z"/>
  </g>
</svg>