<?xml version="1.0" encoding="UTF-8"?>
<svg id="Layer_1" xmlns="http://www.w3.org/2000/svg" version="1.1" viewBox="0 0 1254.54 369.33">
  <!-- Generator: Adobe Illustrator 30.5.1, SVG Export Plug-In . SVG Version: 2.1.4 Build 3)  -->
  <defs>
    <style>
      .st0 {
        fill: #fff;
      }
    </style>
  </defs>
  <rect class="st0" x="1110.4" y="249.66" width="77.39" height="4.32"/>
  <rect class="st0" x="65.97" y="249.53" width="75.91" height="4.46"/>
  <g>
    <path class="st0" d="M838.03,123.73h19.76s-.2,55.6-.2,55.6c-.06,16.24-12.76,26.19-28.77,26.13l-47.97-.2c-15.02-.06-25.83-11.93-25.84-26.71l-.02-54.8,19.29.04.33,53.04c.05,7.3,6.03,12.76,13.08,12.73l37.83-.19c7.51-.04,12.42-6.01,12.43-13.29l.07-52.35ZM1188.25,105.4c-.91-3.28-3.48-5.73-7.4-5.73l-98,.06.24,17.11,81.9.21-57.68,88.24,22.95.3,54.38-84.13c3.33-5.14,5.35-9.81,3.62-16.06ZM911.93,123.63c-15.92-.03-28.86,9.64-28.88,25.35l-.05,56.65,19.68.05.07-53.92c0-6.83,5.39-11.85,11.68-11.95l32.83-.49c.42-5.52.63-10.43-.2-15.62l-35.13-.07ZM684.84,109.69l52.34,95.85-23.43.05-11.89-23.7-70.66-.11-13,23.83-22.93-.08,53.5-96.67c5.29-9.55,17.52-11.23,27.08-7.68,4.27,1.59,6.8,4.47,8.99,8.5ZM692.87,165.56l-9.98-19.13-14.85-26.61c-.52-.93-1.62-1.66-2.38-1.35-.43.18-1.11.91-1.49,1.64l-24.04,45.21,52.74.23ZM1063.27,147.37l.25,58.37-79.53-.44c-8.62-.05-16.41-5.66-18.25-13.66-1.35-5.89-.97-11.59-.58-17.39.79-11.86,11.69-16.78,24.14-16.81l54.98-.13-.29-8c-.22-6.21-5.75-9.62-11.99-9.64l-60.89-.16-.03-15.81,60.93-.09c5.1,0,9.66.38,14.42,1.92,9.5,3.12,16.8,11.34,16.84,21.85ZM1044.34,191.06l-.24-20.31-51.44.06c-5.73.43-8.58,4.01-8.8,9.43-.23,5.42,2.56,10.68,8.85,10.7l51.63.12Z"/>
    <g>
      <polygon class="st0" points="175.5 194.7 188.38 205.47 158.66 205.64 147.65 197.49 100.31 160.09 86.2 159.88 86.16 205.63 65.72 205.56 65.66 99.77 86.06 99.88 86.19 143.28 100.58 143.1 156.92 99.75 187.08 99.96 120.16 151.51 175.5 194.7"/>
      <path class="st0" d="M415.54,94.27l-.17,29.18-54.56.16c-15.05.04-28.66,10.1-28.59,23.72l.16,33.84c.04,9.01,5.1,16.6,12.57,20.59,5.8,2.95,11.77,3.89,18.4,3.89l71.75.03.03-111.27-19.58-.14ZM415.32,189.54l-50.85.06c-7.6-.11-12.53-5.61-12.84-12.7l-.03-25.46c.52-6.55,5.14-11.06,11.76-11.7l51.96-.09v49.89Z"/>
      <path class="st0" d="M537.05,123.98l-47.07-.42c-16.8-.15-30.49,8.77-30.47,24.56l.05,32.09c.02,15.66,12.42,25.12,28.1,25.17l68.39.22-.42-16-66.83-.31c-7.72-.04-11.45-9.02-9.63-18.48l71.65.12c3.74,0,7.28-1.3,7.29-5.66l.02-22.14c-.81-10.91-10.06-19.07-21.07-19.16ZM538.18,156.97l-59.21.44.05-7.79c.04-5.68,5.05-9.91,10.96-9.92l41.07-.09c5.82-.01,9.12,4.86,8.98,10.46-.05,1.9.46,6.88-1.85,6.89Z"/>
      <path class="st0" d="M278.53,123.63l-45.21-.08c-16.66-.03-30.67,9.38-30.65,25.4l.03,31.29c.01,13.47,9.91,24.8,23.9,24.86l54.97.23c12.85.05,25.85-9.5,25.87-24.29l.04-32.92c.02-14.53-13.66-24.46-28.94-24.49ZM288,178.21c-.03,6.04-4.85,11.23-11.48,11.26l-42.05.18c-6.76.03-12.36-5.36-12.37-12.09l-.03-25.22c0-7.07,5.81-12.53,12.86-12.54l40.33-.07c6.86-.01,12.92,4.98,12.88,11.86l-.14,26.62Z"/>
    </g>
  </g>
  <g>
    <path class="st0" d="M582.27,252.42l-15.77.04v10.34s17.96.05,17.96.05c.34,1.3.31,2.52,0,3.69h-22.14s0-31.48,0-31.48h21.76c.31,1.34.29,2.28.12,3.83l-17.7-.04-.02,10.07,15.43.02c.22.48.5,1.39.36,3.48Z"/>
    <path class="st0" d="M249.92,266.34c-1.64.45-2.79.34-4.18.15l-.46-15.83c-.1-3.58-4.27-4.71-7.33-4.32s-6.26,2.81-6.29,6.53l-.12,13.7h-4.04s.03-32.55.03-32.55c1.47-.37,2.67-.33,3.99-.05l.22,12.4c2.25-2.64,4.9-3.47,8.11-3.63,5.75-.29,10,3.48,10.02,9.27l.05,14.34Z"/>
    <path class="st0" d="M950.86,259.91c1.13-1.02,3.56,1.77,2.79,2.52-5.46,5.35-14.46,5.6-20.71,1.56-4.94-3.19-7.13-8.49-6.92-13.98.2-5.15,2.9-10.24,7.93-13.05,6.28-3.5,14.44-2.64,19.82,2.01-.02,1.3-1.25,2.45-2.57,3.16-4.82-4.66-12.04-4.83-17.07-.46-4.82,4.19-5.35,12.16-1.18,16.98,4.4,5.08,12.44,6.21,17.91,1.26Z"/>
    <path class="st0" d="M204.92,265.8c-1.02,1.18-2.72,1.01-4.1.47l-.05-27.41-10.96-.07c-.17-1.43-.15-2.58.06-3.77l25.57.08c.35,1.44.18,2.95-.36,3.62l-10.11.15-.04,26.92Z"/>
    <path class="st0" d="M833.86,266.48l-.5-15.8c-.12-3.81-4.79-4.83-7.91-4.17s-5.59,3.31-5.64,7.17l-.16,12.38c-.17.97-3.57.98-3.74,0l.07-22.95c1.42-.26,2.75-.34,3.25-.07.47.26.6,1.38.73,3.03,2.63-2.39,5.77-3.54,9.7-3.14,4.28.43,7.73,3.49,7.76,7.91l.12,15.44c-1.05.28-1.82.37-3.68.18Z"/>
    <path class="st0" d="M383.24,243.02l-.09,23.42c-1.12.24-2.42.31-2.88.07-.59-.32-.78-1.73-.92-3.2-2.96,2.48-5.86,3.65-9.67,3.19-2.96-.36-7.38-2.13-7.51-5.94l-.57-17.48c1.6-.23,2.63-.25,3.98-.04l.29,15.45c.07,3.88,4.3,5.02,7.65,4.48,3.05-.49,5.7-3.08,5.69-6.82l-.04-13.14c.9-.16,1.77-.38,4.06,0Z"/>
    <path class="st0" d="M618.4,266.29c-.93.52-3.81.94-4.59-.06l-6.61-8.6-6.37,8.25c-.85,1.1-3.21,1.06-4.94.5l8.84-11.86-8.58-11.34c1.46-.45,4.05-.71,4.95.44l6.02,7.67,6.07-7.69c.75-.95,2.97-1.02,4.53-.3l-8.17,11.19,8.85,11.8Z"/>
    <path class="st0" d="M521.42,246.2l-.04,20.35-4.03-.02-.33-20.57c-1.82.3-3.24.17-3.74-.25s-.19-2.68.47-2.62c1.03.1,3.46-.02,3.53-.81.09-2.85.45-5.19,2-6.69,3.31-3.19,9.52-2.2,10.22-.54.22.53-.59,1.75-.98,2.42s-4.5-1.95-6.56.87c-.61.84-1.19,3.32-.36,4.36l6.3.31c.59.28.66,1.97.19,2.87l-6.69.32Z"/>
    <path class="st0" d="M632.62,254.45c-.03,3.85,1.82,6.98,5.11,8.19,3.5,1.29,6.63.34,9.55-2.4.67-.62,3.29,1.42,2.75,2.13-3.97,5.23-11.82,5.52-16.68,1.99-5.4-3.93-6.42-12.03-1.93-17.34,4.8-5.67,14.32-5.52,18.74.19-.12,1.15-1.73,2.05-2.95,2.15-2.28-2.94-5.59-3.81-9.14-2.72-3.06.94-5.43,4.02-5.46,7.81Z"/>
    <path class="st0" d="M739.98,259.01c-.03,7.42,8.38,1.58,8.05,5.63-.15,1.83-5.41,2.91-8.81,1.01-1.64-.92-3.04-2.89-3.12-5.5l-.41-14.05c-1.4.21-3.3.22-3.61-.35-.54-.97-.41-2.9,1.3-2.8.81.05,1.57.09,2.04-.11,1.39-.58.1-4.26.97-4.84.47-.32,1.89-.2,2.43-.17,2.17.12.29,4.58,1.69,5.09.62.23,1.87.1,2.78.07l2.94-.08c.97-.03,1.19,2.94.24,2.99l-6.43.37-.05,12.74Z"/>
    <rect class="st0" x="886.53" y="233.8" width="4.15" height="32.77" transform="translate(-.77 2.76)"/>
    <path class="st0" d="M411.39,246.42c-5.05-.25-8.24,2.98-8.28,7.4l-.12,12.26c-.59.84-2.84.84-3.96.18l.13-22.7c.06-.72,2.68-1.04,3.18-.52s.58,1.99.66,3.36c2.48-2.42,5.16-4.07,8.61-3.52.17,1.29.25,2.22-.23,3.53Z"/>
    <rect class="st0" x="760.95" y="242.83" width="4.07" height="23.77"/>
    <circle class="st0" cx="763.03" cy="235.95" r="2.68"/>
    <path class="st0" d="M1058.28,245.9c-2.64-2.5-6.52-3.35-10.51-2.68-6.7,1.13-10.2,7.56-9.01,13.97,1.11,5.97,6.36,9.89,13.06,9.43,3.09-.21,6.68-.98,8.16-3.83.14-.81-1.65-2.58-2.26-2.2-2.88,2.62-6.48,3.11-9.58,2.18-2.9-.88-5.24-3.06-5.63-6.83l19.16-.04c.41-3.76-.79-7.51-3.4-9.99ZM1042.55,253.08c.45-4.4,3.63-6.8,7.2-6.96,3.69-.17,7.18,1.6,8.15,6.71l-15.35.25Z"/>
    <path class="st0" d="M278.49,243.47c-4.81-1.39-10.16.05-13.08,4.04-2.79,3.81-3.24,9.49-.25,13.98,4.05,6.1,13.7,6.99,19.13,1.91,1-.94-1.25-3.59-2.21-2.73-3.05,2.7-6.23,3.04-9.59,2.01-2.51-.77-4.93-3.03-5.39-6.75l19.16-.15c.46-6.16-2.89-10.9-7.77-12.31ZM267.1,253.03c.63-4.56,3.98-6.96,7.73-6.99,3.91-.03,7.32,2.88,7.55,6.95l-15.28.04Z"/>
    <path class="st0" d="M678.16,244.07c-5.06-2.15-10.62-.89-13.53,2.32-3.62,3.99-4.24,9.89-1.57,14.46,4.09,7,13.93,7.57,19.95,2.44-.18-1.08-1.11-2.63-2.43-2.86-2.8,2.79-6.41,3.38-9.84,2.2-2.71-.93-5.1-3.36-5.27-6.74l19.08-.05c.58-5.37-2.43-10.09-6.39-11.77ZM665.34,252.92c.67-4.06,3.49-6.47,6.89-6.71,3.89-.27,7.52,1.5,8.59,6.68l-15.48.03Z"/>
    <path class="st0" d="M865.4,243.44c-4.46-1.06-9.6-.69-13.27,2.24-.77.61.83,3.21,2.09,2.46,3.19-1.9,6.91-2.6,10.3-1.28,2.23.87,3.13,3.5,2.79,5.86l-9.58.21c-3.77.08-6.29,2.88-6.57,6.17-.29,3.39,1.85,6.4,5.82,7.2,4.11.83,7.57-.11,10.41-2.85.12,1.17.17,2.62.75,2.98.55.34,2.27.29,3.11-.27v-15.48c0-3.51-2.44-6.43-5.85-7.24ZM865.99,261.47c-1.7,1.26-3.43,1.99-5.88,2.02-2.63.03-4.72-1.28-4.92-3.73-.18-2.22,1.48-4.24,4.34-4.1,2,.09,4.99-.77,7.22.43,1.61.87.45,4.5-.75,5.38Z"/>
    <path class="st0" d="M436.98,243.29c-4.25-.8-9.09-.31-12.51,2.36-.65.5.76,2.74,1.59,2.86,2.78-2.08,5.85-2.56,9.54-2.14,2.79.31,5.13,4.58,3.57,6.09l-9.78.61c-3.76.24-5.92,3.34-5.92,6.76,0,3.35,2.41,5.94,6.43,6.59,3.89.63,7.2-.13,9.71-2.9.12,1.15.22,2.58.77,2.95.55.36,2.33.3,3.14-.29l.08-14.91c.02-4.05-2.64-7.22-6.63-7.97ZM438.27,261.48c-1.64,1.36-3.35,2.05-5.93,2.02-2.54-.02-4.68-1.38-4.91-3.74-.42-4.27,5.05-4.99,11.79-3.79,1.34.7.22,4.53-.95,5.5Z"/>
    <path class="st0" d="M491.04,242.65c-6.68,0-12.1,5.42-12.1,12.1s5.42,12.1,12.1,12.1,12.1-5.42,12.1-12.1-5.42-12.1-12.1-12.1ZM491.01,263.04c-4.61,0-8.35-3.74-8.35-8.35s3.74-8.35,8.35-8.35,8.35,3.74,8.35,8.35-3.74,8.35-8.35,8.35Z"/>
    <path class="st0" d="M336.42,235.43c-.94-.69-4.01-.88-4.43.06l-14.01,30.79c.85.58,3.76.96,4.31-.16l3.79-7.67,16.52.22c1.31,3.09,1.73,5.43,3.34,7.44.74.92,3.39.66,4.25.12l-13.76-30.79ZM327.49,255.08l6.63-15.1,6.44,14.74-13.07.36Z"/>
    <path class="st0" d="M790.19,242.65c-6.68,0-12.1,5.42-12.1,12.1s5.42,12.1,12.1,12.1,12.1-5.42,12.1-12.1-5.42-12.1-12.1-12.1ZM790.23,263.08c-4.62,0-8.36-3.74-8.36-8.36s3.74-8.36,8.36-8.36,8.36,3.74,8.36,8.36-3.74,8.36-8.36,8.36Z"/>
    <path class="st0" d="M977.26,242.71c-6.66,0-12.06,5.4-12.06,12.06s5.4,12.06,12.06,12.06,12.06-5.4,12.06-12.06-5.4-12.06-12.06-12.06ZM977.27,263.05c-4.62,0-8.36-3.74-8.36-8.36s3.74-8.36,8.36-8.36,8.36,3.74,8.36,8.36-3.74,8.36-8.36,8.36Z"/>
    <path class="st0" d="M721.92,253.66c-.32-5.1-3.57-8.93-7.64-10.19-4.84-1.51-8.92-.24-12.46,3.03-.04-1.6-.25-3.16-.89-3.52-.48-.27-2.04-.17-3,.26l-.02,31.65c1.63.29,2.77.15,3.98,0l.31-11.39c4.42,3.69,9.42,3.97,13.68,1.87,4.15-2.04,6.35-6.68,6.03-11.69ZM709.88,263.09c-4.62,0-8.37-3.75-8.37-8.37s3.75-8.37,8.37-8.37,8.37,3.75,8.37,8.37-3.75,8.37-8.37,8.37Z"/>
    <path class="st0" d="M1021.1,233.93l.04,12.48c-3.87-3.73-8.92-4.55-13.74-2.34-4.02,1.84-6.59,6.06-6.34,11.17.23,4.87,3.05,9.18,7.04,10.58,4.8,1.68,9.43.73,12.85-2.68.39,2.19.62,3.08,1.04,3.32.42.24,1.77.18,2.84-.11l.11-32.36c-1.51-.35-2.36-.32-3.83-.07ZM1013.16,263.05c-4.63,0-8.39-3.76-8.39-8.39s3.76-8.39,8.39-8.39,8.39,3.76,8.39,8.39-3.76,8.39-8.39,8.39Z"/>
  </g>
</svg>