<?xml version="1.0" encoding="UTF-8"?>
<svg id="Layer_1" xmlns="http://www.w3.org/2000/svg" xmlns:xlink="http://www.w3.org/1999/xlink" version="1.1" viewBox="0 0 1819.18 472.15">
  <!-- Generator: Adobe Illustrator 30.5.1, SVG Export Plug-In . SVG Version: 2.1.4 Build 3)  -->
  <defs>
    <style>
      .st0 {
        fill: #070707;
      }

      .st1 {
        fill: #050505;
      }

      .st2 {
        fill: url(#linear-gradient2);
      }

      .st3 {
        fill: url(#linear-gradient1);
      }

      .st4 {
        fill: url(#linear-gradient3);
      }

      .st5 {
        fill: url(#linear-gradient4);
      }

      .st6 {
        fill: #1c1c1c;
      }

      .st7 {
        fill: #030303;
      }

      .st8 {
        fill: url(#linear-gradient);
      }

      .st9 {
        fill: #060606;
      }

      .st10 {
        fill: #020202;
      }

      .st11 {
        fill: #040404;
      }

      .st12 {
        fill: #141f2b;
      }

      .st13 {
        fill: #090909;
      }

      .st14 {
        fill: #0f0f0f;
      }
    </style>
    <linearGradient id="linear-gradient" x1="1676.88" y1="310.48" x2="1762.63" y2="310.48" gradientUnits="userSpaceOnUse">
      <stop offset="0" stop-color="#1c63f3"/>
      <stop offset="1" stop-color="#102d73"/>
    </linearGradient>
    <linearGradient id="linear-gradient1" x1="603.69" y1="310.43" x2="519.58" y2="310.43" xlink:href="#linear-gradient"/>
    <linearGradient id="linear-gradient2" x1="1524.86" y1="359.72" x2="1343.7" y2="45.96" xlink:href="#linear-gradient"/>
    <linearGradient id="linear-gradient3" x1="297.36" y1="224.86" x2="297.36" y2="278.45" xlink:href="#linear-gradient"/>
    <linearGradient id="linear-gradient4" x1="301.67" y1="164" x2="446.42" y2="324.3" gradientUnits="userSpaceOnUse">
      <stop offset="0" stop-color="#6366f1"/>
      <stop offset="1" stop-color="#102d73"/>
    </linearGradient>
  </defs>
  <g>
    <rect class="st8" x="1676.88" y="308.09" width="85.75" height="4.78"/>
    <rect class="st3" x="519.58" y="307.96" width="84.11" height="4.95"/>
    <path class="st2" d="M1375.07,168.55h21.9s-.22,61.61-.22,61.61c-.07,17.99-14.14,29.02-31.88,28.95l-53.15-.22c-16.64-.07-28.62-13.22-28.63-29.59l-.02-60.72,21.37.04.36,58.77c.05,8.09,6.68,14.14,14.5,14.1l41.92-.21c8.32-.04,13.76-6.66,13.78-14.72l.08-58.01ZM1763.14,148.24c-1.01-3.64-3.86-6.35-8.2-6.35l-108.59.07.26,18.96,90.75.23-63.91,97.78,25.43.33,60.26-93.22c3.68-5.7,5.93-10.87,4.01-17.79ZM1456.96,168.45c-17.64-.04-31.98,10.69-32,28.09l-.05,62.77,21.81.06.08-59.74c.01-7.56,5.97-13.14,12.94-13.24l36.37-.55c.46-6.11.7-11.55-.22-17.31l-38.93-.08ZM1205.33,153l57.99,106.21-25.96.06-13.18-26.26-78.3-.12-14.4,26.4-25.41-.09,59.28-107.11c5.86-10.59,19.42-12.45,30.01-8.51,4.73,1.76,7.53,4.96,9.97,9.41ZM1214.23,214.91l-11.06-21.2-16.46-29.49c-.58-1.03-1.8-1.84-2.63-1.49-.48.2-1.22,1.01-1.65,1.82l-26.63,50.1,58.44.26ZM1624.65,194.75l.27,64.68-88.12-.49c-9.56-.05-18.19-6.27-20.22-15.14-1.49-6.52-1.07-12.84-.64-19.27.87-13.14,12.95-18.59,26.75-18.63l60.93-.15-.32-8.87c-.25-6.88-6.38-10.66-13.29-10.68l-67.47-.18-.04-17.52,67.51-.09c5.65,0,10.7.42,15.98,2.12,10.53,3.46,18.61,12.57,18.66,24.21ZM1603.68,243.16l-.27-22.5-56.99.07c-6.35.47-9.5,4.45-9.75,10.45-.25,6.01,2.84,11.84,9.81,11.86l57.21.13Z"/>
    <g>
      <polygon points="640.94 247.2 655.22 259.13 622.29 259.32 610.09 250.29 557.63 208.85 542 208.62 541.95 259.31 519.3 259.23 519.24 142 541.84 142.13 541.99 190.22 557.93 190.02 620.36 141.98 653.78 142.22 579.62 199.34 640.94 247.2"/>
      <path d="M906.93,135.92l-.19,32.33-60.45.18c-16.68.05-31.75,11.19-31.68,26.28l.18,37.5c.05,9.99,5.65,18.39,13.92,22.82,6.43,3.26,13.04,4.31,20.39,4.31l79.5.04.03-123.3-21.69-.15ZM906.68,241.48l-56.35.07c-8.42-.13-13.88-6.22-14.22-14.07l-.03-28.21c.57-7.25,5.7-12.25,13.03-12.96l57.58-.1v55.29Z"/>
      <path d="M1041.56,168.83l-52.16-.46c-18.61-.16-33.79,9.72-33.76,27.21l.06,35.56c.03,17.35,13.77,27.84,31.13,27.89l75.78.24-.46-17.73-74.06-.35c-8.56-.04-12.68-9.99-10.68-20.47l79.39.13c4.15,0,8.07-1.44,8.07-6.27l.03-24.53c-.9-12.09-11.14-21.13-23.35-21.23ZM1042.83,205.39l-65.61.49.05-8.63c.04-6.29,5.59-10.98,12.14-10.99l45.51-.1c6.45-.01,10.11,5.38,9.95,11.59-.05,2.11.51,7.62-2.05,7.64Z"/>
      <path d="M755.11,168.45l-50.09-.09c-18.46-.03-33.98,10.4-33.96,28.15l.04,34.67c.02,14.92,10.98,27.48,26.48,27.55l60.91.25c14.23.06,28.64-10.52,28.66-26.92l.04-36.47c.02-16.1-15.14-27.11-32.07-27.14ZM765.6,228.92c-.04,6.69-5.37,12.44-12.72,12.47l-46.6.2c-7.49.03-13.69-5.94-13.7-13.4l-.04-27.94c0-7.83,6.43-13.89,14.26-13.9l44.69-.07c7.6-.01,14.31,5.52,14.27,13.15l-.16,29.5Z"/>
    </g>
    <g>
      <path class="st9" d="M1091.67,311.16l-17.48.04v11.45s19.91.06,19.91.06c.38,1.44.34,2.8,0,4.08l-24.54-.02v-34.87s24.11,0,24.11,0c.34,1.49.32,2.52.14,4.25l-19.61-.04-.02,11.16,17.09.03c.24.53.55,1.53.4,3.85Z"/>
      <path class="st7" d="M723.41,326.58c-1.81.5-3.09.38-4.63.16l-.51-17.54c-.12-3.97-4.73-5.22-8.12-4.79s-6.94,3.12-6.97,7.23l-.13,15.18h-4.48s.03-36.06.03-36.06c1.63-.41,2.96-.36,4.42-.06l.24,13.74c2.49-2.92,5.42-3.85,8.99-4.03,6.37-.32,11.09,3.85,11.11,10.27l.05,15.89Z"/>
      <path class="st11" d="M1500.09,319.45c1.25-1.13,3.94,1.96,3.09,2.79-6.05,5.92-16.02,6.2-22.95,1.73-5.48-3.53-7.9-9.41-7.67-15.49.22-5.71,3.21-11.35,8.79-14.46,6.96-3.88,16-2.93,21.96,2.22-.03,1.44-1.39,2.71-2.85,3.51-5.34-5.16-13.34-5.35-18.91-.51-5.34,4.64-5.93,13.47-1.3,18.81,4.88,5.63,13.78,6.88,19.85,1.39Z"/>
      <path class="st14" d="M673.54,325.98c-1.13,1.31-3.01,1.12-4.55.53l-.06-30.37-12.14-.07c-.19-1.59-.17-2.86.06-4.17l28.34.09c.39,1.59.2,3.27-.4,4.01l-11.2.16-.05,29.83Z"/>
      <path class="st9" d="M1370.45,326.74l-.56-17.51c-.13-4.22-5.3-5.36-8.76-4.62-3.51.75-6.19,3.67-6.25,7.94l-.18,13.72c-.19,1.07-3.95,1.08-4.14.01l.08-25.43c1.57-.29,3.05-.38,3.6-.07.52.29.67,1.53.81,3.36,2.91-2.65,6.39-3.92,10.74-3.48,4.74.48,8.56,3.87,8.6,8.77l.13,17.11c-1.16.31-2.01.41-4.08.2Z"/>
      <path class="st11" d="M871.14,300.74l-.1,25.95c-1.24.27-2.68.35-3.19.08-.66-.35-.87-1.92-1.02-3.54-3.28,2.75-6.49,4.04-10.72,3.53-3.28-.4-8.18-2.36-8.32-6.58l-.63-19.37c1.77-.26,2.91-.28,4.41-.05l.32,17.12c.08,4.3,4.77,5.56,8.47,4.97,3.37-.54,6.32-3.41,6.31-7.56l-.04-14.56c1-.18,1.96-.42,4.5,0Z"/>
      <path class="st11" d="M1131.71,326.53c-1.03.57-4.22,1.05-5.08-.07l-7.33-9.53-7.05,9.14c-.94,1.22-3.56,1.18-5.47.56l9.8-13.14-9.51-12.57c1.62-.5,4.48-.79,5.49.49l6.67,8.5,6.72-8.53c.83-1.05,3.29-1.13,5.02-.33l-9.05,12.4,9.81,13.07Z"/>
      <path class="st1" d="M1024.25,304.26l-.04,22.55-4.46-.02-.36-22.8c-2.01.33-3.59.19-4.15-.28s-.21-2.97.53-2.9c1.14.11,3.84-.02,3.91-.89.1-3.15.49-5.75,2.21-7.41,3.67-3.54,10.55-2.44,11.33-.6.25.59-.65,1.94-1.09,2.68s-4.99-2.16-7.26.97c-.68.93-1.31,3.68-.39,4.83l6.98.35c.65.31.74,2.18.21,3.17l-7.41.35Z"/>
      <path class="st1" d="M1147.47,313.41c-.03,4.27,2.02,7.73,5.66,9.07,3.88,1.43,7.34.37,10.59-2.66.74-.69,3.64,1.57,3.04,2.36-4.4,5.79-13.1,6.11-18.48,2.2-5.99-4.35-7.12-13.34-2.14-19.21,5.32-6.29,15.87-6.12,20.76.21-.13,1.28-1.92,2.27-3.26,2.39-2.53-3.26-6.19-4.22-10.13-3.01-3.39,1.04-6.01,4.46-6.05,8.65Z"/>
      <path class="st1" d="M1266.43,318.46c-.03,8.22,9.29,1.75,8.92,6.24-.17,2.03-5.99,3.23-9.76,1.12-1.82-1.02-3.37-3.2-3.45-6.09l-.45-15.57c-1.55.24-3.65.24-4-.39-.6-1.07-.45-3.22,1.44-3.1.9.06,1.74.1,2.26-.12,1.54-.64.11-4.71,1.07-5.37.52-.35,2.1-.22,2.69-.19,2.4.13.32,5.07,1.87,5.64.68.25,2.08.11,3.08.08l3.25-.09c1.08-.03,1.32,3.25.27,3.31l-7.12.4-.06,14.11Z"/>
      <rect class="st0" x="1428.82" y="290.53" width="4.6" height="36.31" transform="translate(-.95 4.45)"/>
      <path class="st13" d="M902.33,304.51c-5.59-.28-9.13,3.3-9.18,8.2l-.13,13.59c-.65.93-3.14.93-4.39.2l.15-25.16c.07-.8,2.98-1.15,3.52-.57s.65,2.2.73,3.73c2.75-2.68,5.72-4.51,9.55-3.9.19,1.43.28,2.46-.25,3.91Z"/>
      <rect x="1289.67" y="300.52" width="4.51" height="26.34"/>
      <circle class="st6" cx="1291.97" cy="292.91" r="2.96"/>
      <path class="st1" d="M1619.12,303.93c-2.93-2.77-7.23-3.71-11.65-2.96-7.42,1.25-11.3,8.37-9.98,15.48,1.23,6.62,7.05,10.96,14.48,10.45,3.42-.24,7.4-1.09,9.04-4.25.15-.9-1.83-2.86-2.5-2.44-3.19,2.9-7.18,3.45-10.61,2.41-3.21-.97-5.81-3.39-6.24-7.57l21.23-.04c.45-4.17-.87-8.33-3.77-11.07ZM1601.69,311.88c.5-4.87,4.02-7.54,7.98-7.71,4.09-.18,7.95,1.77,9.04,7.44l-17.01.28Z"/>
      <path class="st1" d="M755.07,301.23c-5.33-1.54-11.26.05-14.49,4.48-3.09,4.23-3.59,10.51-.28,15.49,4.48,6.76,15.18,7.75,21.2,2.12,1.11-1.04-1.38-3.98-2.45-3.03-3.38,2.99-6.91,3.37-10.63,2.23-2.78-.85-5.47-3.36-5.97-7.48l21.23-.17c.51-6.82-3.2-12.08-8.61-13.64ZM742.44,311.83c.7-5.06,4.41-7.71,8.56-7.74,4.34-.04,8.11,3.19,8.37,7.7l-16.93.05Z"/>
      <path class="st1" d="M1197.92,301.9c-5.61-2.38-11.76-.99-14.99,2.57-4.01,4.42-4.7,10.95-1.74,16.02,4.53,7.75,15.44,8.39,22.11,2.7-.2-1.19-1.23-2.91-2.69-3.17-3.1,3.1-7.1,3.75-10.9,2.44-3-1.03-5.65-3.72-5.84-7.47l21.14-.05c.64-5.94-2.69-11.18-7.08-13.04ZM1183.72,311.71c.74-4.49,3.87-7.17,7.63-7.44,4.31-.3,8.33,1.66,9.52,7.4l-17.15.03Z"/>
      <path class="st11" d="M1405.4,301.2c-4.95-1.17-10.64-.76-14.71,2.49-.85.68.92,3.55,2.31,2.72,3.54-2.11,7.66-2.88,11.41-1.42,2.47.97,3.47,3.88,3.09,6.49l-10.62.23c-4.17.09-6.97,3.19-7.28,6.83-.32,3.75,2.05,7.09,6.45,7.97,4.55.92,8.39-.12,11.53-3.15.13,1.3.19,2.9.83,3.3.61.38,2.52.32,3.44-.3v-17.16c.01-3.89-2.7-7.12-6.48-8.02ZM1406.06,321.18c-1.89,1.39-3.8,2.21-6.52,2.24-2.92.04-5.23-1.42-5.46-4.13-.2-2.46,1.64-4.69,4.81-4.55,2.21.1,5.53-.86,8,.47,1.78.96.5,4.98-.83,5.97Z"/>
      <path class="st11" d="M930.68,301.03c-4.71-.88-10.07-.34-13.86,2.61-.72.56.84,3.04,1.76,3.17,3.08-2.3,6.48-2.83,10.57-2.37,3.1.35,5.68,5.07,3.95,6.75l-10.83.68c-4.17.26-6.55,3.7-6.55,7.49,0,3.72,2.67,6.58,7.12,7.3,4.31.7,7.98-.14,10.76-3.22.13,1.27.24,2.86.85,3.26.61.4,2.58.33,3.48-.32l.09-16.52c.03-4.49-2.92-8.01-7.34-8.83ZM932.12,321.2c-1.82,1.51-3.71,2.27-6.57,2.24-2.81-.03-5.19-1.53-5.44-4.14-.46-4.73,5.59-5.52,13.06-4.2,1.49.77.25,5.02-1.05,6.1Z"/>
      <path class="st7" d="M990.58,300.33c-7.41,0-13.41,6-13.41,13.41s6,13.41,13.41,13.41,13.41-6,13.41-13.41-6-13.41-13.41-13.41ZM990.55,322.92c-5.11,0-9.26-4.14-9.26-9.26s4.14-9.26,9.26-9.26,9.26,4.14,9.26,9.26-4.14,9.26-9.26,9.26Z"/>
      <path class="st7" d="M819.25,292.33c-1.04-.76-4.44-.97-4.91.06l-15.53,34.11c.94.64,4.17,1.06,4.78-.18l4.2-8.5,18.31.24c1.45,3.43,1.92,6.02,3.7,8.24.82,1.02,3.76.73,4.7.13l-15.25-34.11ZM809.36,314.1l7.35-16.73,7.14,16.33-14.48.4Z"/>
      <path class="st11" d="M1322.07,300.33c-7.4,0-13.4,6-13.4,13.4s6,13.4,13.4,13.4,13.4-6,13.4-13.4-6-13.4-13.4-13.4ZM1322.11,322.97c-5.11,0-9.26-4.15-9.26-9.26s4.15-9.26,9.26-9.26,9.26,4.15,9.26,9.26-4.15,9.26-9.26,9.26Z"/>
      <path class="st11" d="M1529.35,300.4c-7.38,0-13.37,5.99-13.37,13.37s5.99,13.37,13.37,13.37,13.37-5.99,13.37-13.37-5.99-13.37-13.37-13.37ZM1529.36,322.93c-5.12,0-9.26-4.15-9.26-9.26s4.15-9.26,9.26-9.26,9.26,4.15,9.26,9.26-4.15,9.26-9.26,9.26Z"/>
      <path class="st7" d="M1246.42,312.53c-.36-5.65-3.96-9.89-8.46-11.3-5.36-1.67-9.88-.27-13.81,3.36-.04-1.77-.27-3.51-.98-3.9-.53-.3-2.26-.19-3.32.28l-.02,35.07c1.8.32,3.07.17,4.41,0l.34-12.62c4.9,4.09,10.44,4.39,15.16,2.07,4.6-2.26,7.04-7.4,6.68-12.96ZM1233.08,322.97c-5.12,0-9.28-4.15-9.28-9.28s4.15-9.28,9.28-9.28,9.28,4.15,9.28,9.28-4.15,9.28-9.28,9.28Z"/>
      <path class="st10" d="M1577.93,290.67l.05,13.83c-4.28-4.13-9.88-5.04-15.23-2.59-4.45,2.04-7.3,6.72-7.03,12.38.26,5.4,3.38,10.17,7.8,11.72,5.32,1.86,10.45.81,14.23-2.97.43,2.42.68,3.42,1.15,3.68.46.26,1.96.2,3.15-.12l.13-35.86c-1.67-.39-2.62-.36-4.25-.07ZM1569.13,322.94c-5.13,0-9.3-4.16-9.3-9.3s4.16-9.3,9.3-9.3,9.3,4.16,9.3,9.3-4.16,9.3-9.3,9.3Z"/>
    </g>
  </g>
  <g>
    <path class="st4" d="M248.65,247.25l29.62-13.61-.04,9.2-20.08,8.59,20.03,8.7.03,9.67-29.64-13.79.07-8.77ZM345.75,247.09l-29.52-13.53.12,9.14,20.09,8.78-19.99,8.92c-.13,3.06-.4,5.86.17,9.16l29.53-13.48-.4-8.99ZM285.44,278.45l8.74-.1,14.89-53.5h-8.2s-15.43,53.59-15.43,53.59Z"/>
    <path class="st5" d="M456.35,286.23l-45.96-81.41-45.28-80.06c-4.28-7.56-8.92-13.96-16.47-18.45-11.29-6.72-25.28-6.37-36.12,1.72-9.08,6.78-16.83,14.97-24.75,23.28l12.87,1.27c8.71.86,18.79,9.75,23.67,18.22l81.2,141.14,19.3,33.85-75.06.14c4.26,8.52,9.8,14.93,16.48,20.87,16.98,15.25,38.37,23.77,61.44,23.75l76.09-.07-47.4-84.26Z"/>
    <g>
      <path class="st12" d="M306.01,361.79l-98.85-97.8-33.63-33.35,119.31-112.72,18.12-16.25h-60.81c-7.77,0-14.94,3-20.52,8.34l-101.77,97.56c-12.06,11.56-14.33,32.25-1.97,44.41l66.73,65.69,45.12,44.25c5.59,5.48,12.88,8.55,20.68,8.55h56.15s-8.57-8.69-8.57-8.69Z"/>
      <path class="st12" d="M102.69,101.71l-47.35.11.09,258.9c4.35.56,8.09-.15,11.97-1.36,20.84-6.47,36.08-25.79,35.33-48.39l-.04-209.26Z"/>
    </g>
  </g>
</svg>